When Juliette marries Jean, she comes to live on his ship, on board of which are, besides the two of them, only a cabin boy and the strange old second mate Pere Jules. Soon bored by life on the river, she slips off to see the nightlife when they come to Paris. Angered by this, Jean sets off, leaving Juliette behind. Overcome by grief and longing for his wife, Jean falls into a depression and Pere Jules goes and tries to find Juliette.

   General
      Complete name : L'Atalante (1934).mkv
      Format : Matroska
      File size : 4.45 GiB
      Duration : 1h 29mn
      Overall bit rate : 7 138 Kbps
      Encoded date : UTC 2011-09-16 13:03:08
      Writing application : mkvmerge v4.8.0 ('I Got The...') built on May 24 2011 03:12:58
      Writing library : libebml v1.2.0 + libmatroska v1.1.0
   Video #1
      ID : 1
      Format : AVC
      Format/Info : Advanced Video Codec
      Format profile : High@L4.0
      Format settings, CABAC : Yes
      Format settings, ReFrames : 12 frames
      Muxing mode : Container profile=Unknown@4.0
      Codec ID : V_MPEG4/ISO/AVC
      Duration : 1h 29mn
      Bit rate : 6 356 Kbps
      Nominal bit rate : 6 500 Kbps
      Width : 960 pixels
      Height : 720 pixels
      Display aspect ratio : 4:3
      Frame rate mode : Constant
      Frame rate : 23.976 fps
      Resolution : 24 bits
      Colorimetry : 4:2:0
      Scan type : Progressive
      Bits/(Pixel*Frame) : 0.384
      Stream size : 3.96 GiB (89%)
      Writing library : x264 core 115 r2008 4c552d8      
   Audio #2
      ID : 2
      Format : AC-3
      Format/Info : Audio Coding 3
      Codec ID : A_AC3
      Duration : 1h 29mn
      Bit rate mode : Constant
      Bit rate : 448 Kbps
      Channel(s) : 1 channel
      Channel positions : C
      Sampling rate : 48.0 KHz
      Stream size : 286 MiB (6%)
      Language : French
   Audio #3
      ID : 3
      Format : AC-3
      Format/Info : Audio Coding 3
      Codec ID : A_AC3
      Duration : 1h 29mn
      Bit rate mode : Constant
      Bit rate : 192 Kbps
      Channel(s) : 1 channel
      Channel positions : C
      Sampling rate : 48.0 KHz
      Stream size : 123 MiB (3%)
      Language: English
   Text #4
      ID : 4
      Format : UTF-8
      Codec ID : S_TEXT/UTF8
      Codec ID/Info : UTF-8 Plain Text
      Language: English
 
http://www.imdb.com/title/tt0024844/

French audio for film, English for commentaries; English subtitle in the mkv

Version posted at KG by softbulletin, whom we thank
